<svg width="1024" height="1024" viewBox="0 0 1024 1024" fill="none" xmlns="http://www.w3.org/2000/svg">
<rect width="1024" height="1024" fill="#A634FF"/>
<g clip-path="url(#clip0_1333_71)">
<path d="M164 341.752V256H249.714V341.752H164Z" fill="#FAFF00"/>
<path d="M335.428 341.752V256H421.142V341.752H335.428Z" fill="#FAFF00"/>
<path d="M335.428 427.505V341.752H421.142V427.505H335.428Z" fill="#FAFF00"/>
<path d="M335.428 513.257V427.505H421.142V513.257H335.428Z" fill="#FAFF00"/>
<path d="M335.428 599.009V513.257H421.142V599.009H335.428Z" fill="#FAFF00"/>
<path d="M335.428 684.762V599.009H421.142V684.762H335.428Z" fill="#FAFF00"/>
<path d="M335.428 770.514V684.762H421.142V770.514H335.428Z" fill="#FAFF00"/>
<path d="M421.141 341.752V256H506.855V341.752H421.141Z" fill="#FAFF00"/>
<path d="M421.141 770.514V684.762H506.855V770.514H421.141Z" fill="#FAFF00"/>
<path d="M506.857 341.752V256H592.572V341.752H506.857Z" fill="#FAFF00"/>
<path d="M506.857 427.505V341.752H592.572V427.505H506.857Z" fill="#FAFF00"/>
<path d="M506.857 513.257V427.505H592.572V513.257H506.857Z" fill="#FAFF00"/>
<path d="M506.857 599.009V513.257H592.572V599.009H506.857Z" fill="#FAFF00"/>
<path d="M506.857 770.514V684.762H592.572V770.514H506.857Z" fill="#FAFF00"/>
<path d="M592.57 341.752V256H678.285V341.752H592.57Z" fill="#FAFF00"/>
<path d="M592.57 770.514V684.762H678.285V770.514H592.57Z" fill="#FAFF00"/>
<path d="M678.285 341.752V256H763.999V341.752H678.285Z" fill="#FAFF00"/>
<path d="M678.285 427.505V341.752H763.999V427.505H678.285Z" fill="#FAFF00"/>
<path d="M678.285 513.257V427.505H763.999V513.257H678.285Z" fill="#FAFF00"/>
<path d="M678.285 599.009V513.257H763.999V599.009H678.285Z" fill="#FAFF00"/>
<path d="M678.285 684.762V599.009H763.999V684.762H678.285Z" fill="#FAFF00"/>
<path d="M678.285 770.514V684.762H763.999V770.514H678.285Z" fill="#FAFF00"/>
</g>
<defs>
<clipPath id="clip0_1333_71">
<rect width="600" height="514" fill="white" transform="translate(164 256)"/>
</clipPath>
</defs>
</svg>
